<?xml version="1.0" encoding="utf-8"?>
<!-- Generator: Adobe Illustrator 25.2.0, SVG Export Plug-In . SVG Version: 6.00 Build 0)  -->
<svg version="1.1" id="Layer_1" xmlns="http://www.w3.org/2000/svg" xmlns:xlink="http://www.w3.org/1999/xlink" x="0px" y="0px"
	 viewBox="0 0 273.49 228.94" style="enable-background:new 0 0 273.49 228.94;" xml:space="preserve">
<g>
	<g>
		<path d="M3.57,140.51c0-28.54,0-57.08,0-85.63c7.48-1.88,11.8-12.38,21.98-7.42c4.68,2.28,8.04,7.82,14.03,6.82
			c29.67-4.95,42.68,19.4,58.33,35.74c19.12,19.96,27.69,47.53,40.78,71.81c6.68,12.4,10.75,9.52,16.11-0.56
			c5.56-10.45,11.68-20.61,17.81-30.74c13.79-22.79,27.62-45.6,44.94-65.94c7.9-9.27,0.61-18.14,0.65-27.14
			c0.02-4.84-5.06-5.23-8.13-4.22c-8.89,2.93-17.78-0.89-26.33,0.43c-42.14,6.51-84.51,7.23-126.99,6.57
			c-9.02-0.14-21.48,0.51-22.02-9.5c-0.62-11.42,12.01-14.19,22.19-15.89c1.16-0.19,2.37-0.08,3.56-0.09
			c42.61-0.37,84.75-5.39,126.91-11.34c19.67-2.78,40.07-5.48,59.99,1.62c6.56,2.34,11.93,4.3,13.42,12.14
			c3.24,17.04,19.72,32.71,4.98,51.6c-0.83,1.06,0.28,3.49,0.12,5.24c-2.85,31.97,3.21,63.93-2.22,96.16
			c-5.54,32.82-26.28,53.87-60.17,54.32c-29.61,0.39-59.24,0.18-88.85,0.81c-26.79,0.56-53.57,2.38-80.36,2.63
			c-10.74,0.1-18.74-5.56-22.51-16.78c-5.46-16.28-3.06-32.92-3.9-49.43C7.54,154.57,12.2,146.06,3.57,140.51z M46,77.55
			c2.04,33.13,4.41,63.27,5.45,93.46c0.32,9.21,2.19,16.26,11.73,16.07c14.08-0.27,28.63,0.6,43.07-5.45
			C89.62,144.98,72.28,110.1,46,77.55z M174.56,184.33c15.42,0,25.48-0.22,35.53,0.07c7.59,0.22,12.96-0.47,10.51-10.63
			c-0.88-3.64,1.84-8.01,2.05-12.09c0.8-15.69,4.3-31.51,0.46-50.16C203.25,134.62,197.36,161.92,174.56,184.33z"/>
	</g>
</g>
</svg>
