<?xml version="1.0" encoding="utf-8"?>
<!-- Generator: Adobe Illustrator 25.2.0, SVG Export Plug-In . SVG Version: 6.00 Build 0)  -->
<svg version="1.1" id="Layer_1" xmlns="http://www.w3.org/2000/svg" xmlns:xlink="http://www.w3.org/1999/xlink" x="0px" y="0px"
	 viewBox="0 0 720 720" style="enable-background:new 0 0 720 720;" xml:space="preserve">
<path d="M326.8,220.6c0,0,7.9,4.6,14,0c0,0,3.2-6.1,0-11.6c-3.2-5.5-32.6-19.4-32.6-19.4s-31-13.9-68.2-6.2
	c-37.2,7.7-63.5,34.1-63.5,34.1s-21.7,23.2-26.3,43.4c-4.6,20.1-6.2,34.1-6.2,34.1s1.5,38.7,9.3,55.8c7.7,17,13.9,31,13.9,31
	s31,54.2,71.3,86.8s91.4,71.3,91.4,71.3s12.3,1.4,12.3-4c0,0,3-7,0-10c-3-3-48-34-48-34s-49.6-32.5-94.5-92.9
	s-37.2-106.9-37.2-106.9s1.5-44.9,38.7-71.3s72.8-20.1,72.8-20.1S302,200.5,326.8,220.6z"/>
<path d="M361.2,544.5V208.1c0,0,10-9.2,16.8,0l35.5,113.5l26.4-140.4c0,0,38.7-10.2,83.6,30.6s34.1,106.7,34.1,106.7
	s-10.8,54.9-46.5,98.8l-23.2,26.7c0,0-6.2,3.1-12.4,0c0,0-4.6-7.8-1.5-11s29.4-31.4,43.4-56.5c13.9-25.1,21.7-59.6,21.7-59.6
	s6.2-39.2-9.3-67.5s-34.1-37.6-34.1-37.6S474,196,455.4,197.6l-31.1,165.2c0,0-8.2,9.9-14.1,0l-32.2-93v265.1
	C377.9,534.9,370.8,547.8,361.2,544.5z"/>
<g>
	<g>
		<path d="M371.1,217.8c9,0,9-14,0-14C362.1,203.8,362.1,217.8,371.1,217.8L371.1,217.8z"/>
	</g>
</g>
</svg>
