<?xml version="1.0" encoding="utf-8"?>
<!-- Generator: Adobe Illustrator 25.2.0, SVG Export Plug-In . SVG Version: 6.00 Build 0)  -->
<svg version="1.1" id="Layer_1" xmlns="http://www.w3.org/2000/svg" xmlns:xlink="http://www.w3.org/1999/xlink" x="0px" y="0px"
	 viewBox="0 0 720 720" style="enable-background:new 0 0 720 720;" xml:space="preserve">
<path d="M317.3,108.7c0,0,13.7,8.1,24.3,0c0,0,5.5-10.6,0-20.1c-5.5-9.5-56.6-33.7-56.6-33.7s-53.8-24.2-118.3-10.8
	S56.5,103.3,56.5,103.3s-37.6,40.3-45.7,75.3S0,237.7,0,237.7s2.7,67.2,16.1,96.8s24.2,53.8,24.2,53.8S94.1,482.4,164,538.9
	s158.7,123.7,158.7,123.7s21.3,2.4,21.4-6.9c0,0,5.3-12.2,0-17.4c-5.3-5.3-83.3-59.1-83.3-59.1s-86.1-56.5-164-161.3
	S32.3,232.4,32.3,232.4s2.7-78,67.2-123.7s126.4-35,126.4-35S274.3,73.7,317.3,108.7z"/>
<path d="M377,670.8v-584c0,0,17.3-15.9,29.2,0l61.7,197l45.8-243.8c0,0,67.1-17.7,145.1,53.1S718,278.4,718,278.4
	s-18.8,95.3-80.7,171.6L597,496.2c0,0-10.8,5.4-21.5,0c0,0-8.1-13.6-2.7-19.1c5.4-5.4,51.1-54.5,75.3-98s37.6-103.5,37.6-103.5
	s10.8-68.1-16.1-117.1s-59.2-65.4-59.2-65.4S572.8,66,540.5,68.7l-54,286.7c0,0-14.3,17.1-24.5,0l-56-161.5v460.2
	C406.1,654.2,393.7,676.5,377,670.8z"/>
<g>
	<g>
		<path d="M394.3,98.6c9,0,9-14,0-14C385.3,84.6,385.2,98.6,394.3,98.6L394.3,98.6z"/>
	</g>
</g>
</svg>
