<?xml version="1.0" encoding="utf-8"?>
<!-- Generator: Adobe Illustrator 25.2.0, SVG Export Plug-In . SVG Version: 6.00 Build 0)  -->
<svg version="1.1" id="Layer_1" xmlns="http://www.w3.org/2000/svg" xmlns:xlink="http://www.w3.org/1999/xlink" x="0px" y="0px"
	 viewBox="0 0 223 237" style="enable-background:new 0 0 223 237;" xml:space="preserve">
<g>
	<g>
		<path d="M110.42,235.76c-24.57-0.03-49.17,0.6-73.71-0.2c-24.67-0.81-33.48-14.44-33.36-39.42c0.19-41.18-4-82.31-1.51-123.6
			c1.05-17.46,4.29-34.63,4.93-52.21C7.24,6.87,13.14-3.14,33.03,1.87c16.72,4.21,35.83,0.04,53.67-1.12
			c32.97-2.15,65.41,1.02,97.64,5.72c26.33,3.83,33.54,17.15,36.14,55.2c2.76,40.31,2.14,80.61,0.97,120.97
			c-0.45,15.34-7.86,27.61-13.84,40.38c-4.41,9.43-14.05,13.25-25.38,12.96C158.31,235.37,134.36,235.79,110.42,235.76z
			 M115.51,210.3c0,0.37,0,0.75,0,1.12c17.65,0,35.31-0.12,52.96,0.05c9.1,0.09,11.67-2.79,13.09-13.03
			c6.3-45.21-2.06-90.1-1.11-135.15c0.39-18.59-10.06-31.3-29.87-35.18c-25.47-4.99-51.35-4.6-77.01-6.69
			c-38.14-3.1-40.04-2.05-37.62,35.22c2.92,44.99,0.89,90.15,6.27,135.09c1.77,14.78,8.53,18.26,20.35,18.48
			C80.2,210.54,97.86,210.3,115.51,210.3z"/>
		<path d="M113.15,74.14c23.05,0.05,44.81,11.88,47.55,29.14c3.7,23.3-0.29,43.99-23.3,56.3c-19.27,10.31-38.84,14.93-61.02,6.56
			c-27.07-10.23-31.51-66.86-4.35-80.58C85.28,78.86,98.13,73.3,113.15,74.14z M107.61,100.79c-8.44,4.23-24.01-1.72-24.65,15.92
			c-0.5,13.86,12.81,25.7,28.95,25.48c10.48-0.14,18.43-3.31,17.73-16.35C128.88,111.81,125.02,101.03,107.61,100.79z"/>
	</g>
</g>
</svg>
