<?xml version="1.0" encoding="utf-8"?>
<!-- Generator: Adobe Illustrator 25.2.0, SVG Export Plug-In . SVG Version: 6.00 Build 0)  -->
<svg version="1.1" id="Layer_1" xmlns="http://www.w3.org/2000/svg" xmlns:xlink="http://www.w3.org/1999/xlink" x="0px" y="0px"
	 viewBox="0 0 291.75 212.66" style="enable-background:new 0 0 291.75 212.66;" xml:space="preserve">
<g>
	<g>
		<path d="M123.11,167.3c-4.08-19.15,1.53-43.55-6.88-66.6c-1.73-4.75,1.14-8.66,5.24-10.03c10.32-3.46,21.02-8.88,31.38-8.48
			c22.37,0.87,44.56-1.47,66.86-1.29c38.89,0.32,72,32.76,72.04,71.9c0.01,12.93-2.65,25.65-0.55,38.86
			c1.69,10.64-13.84,21.95-26.46,20.73c-7.75-0.75-15.47-3.55-23.12-3.29c-14.37,0.49-24.7-1.03-21.96-19.82
			c1.08-7.44-6.32-11.04-12.42-14.5c-6.3-3.57-8.48-1.62-8.86,4.86c-1.79,30.47-12.39,24.77-34.13,23.99
			c-7.86-0.28-14.93-1.31-22.61,1.83c-12.01,4.91-18.42-0.19-18.52-13.53C123.07,185.13,123.11,178.35,123.11,167.3z M156.73,105.2
			c-3.89,4.21-18.38-3.17-13.18,10.36c6.26,16.26,7.14,33.21,10.52,49.82c0.99,4.88-0.08,10.83,7.44,11.75
			c7.14,0.87,12.35-1.39,14.87-8.32c3.26-8.95,9.92-14.48,18.17-18.3c18.84-8.73,35.37-2.94,52.18,18.26
			c2.2,2.77,3.13,7.11,7.68,6.68c5.69-0.54,4.69-6.14,6.4-9.6c9.57-19.27-23.69-58.32-41.39-59.06
			c-11.41-0.48-21.25-0.81-26.14,13.26c-2.73,7.87-11.46,13.25-20.45,10.75c-8.3-2.31-4.97-9.49-3.7-15.76
			C171.17,105.1,163.05,106.37,156.73,105.2z"/>
		<path d="M96.5,133.4c-4.44,16.49,7.29,36.88,0.34,57.65c-2.49,7.42-6.02,12.11-13.11,13.57c-19.91,4.09-40.06,5.52-60.38,3.84
			c-7.52-0.62-13.31-4.35-14.65-11.75c-4.12-22.9-8.22-45.94-7.9-69.26C1,113.51,11.24,104.8,22.72,99.51
			c17.7-8.16,37.31-8.57,56.39-10.21c11.11-0.96,17.69,4.73,17.43,16.75C96.36,113.83,96.5,121.62,96.5,133.4z M65.3,138.63
			c0.55-4.09,1.76-8.22,1.51-12.25c-0.55-8.7,0.22-18.1-14.03-16.62c-18.97,1.96-22.34,4.41-20.75,18.83
			c1.59,14.43,3.27,28.91,3.55,43.4c0.2,10.29,5.46,12.51,13.84,12.06c7.78-0.42,16.33,2.65,18.35-10.66
			C69.61,161.3,61.64,150.43,65.3,138.63z"/>
		<path d="M84.92,37.78c-0.2,22.17-22.08,39.99-48.83,39.78C22.29,77.44,5.35,58.51,5.42,43.29C5.52,21.19,30.32-0.5,54.74,0.15
			C74.55,0.68,85.14,13.88,84.92,37.78z M52.31,37.6c-0.66-6.2,0.87-14.73-9.42-14.08c-8.32,0.53-15.05,4.13-14.44,14.58
			c0.57,9.65,6.12,14.15,15,14.38C54.21,52.78,51.67,44.2,52.31,37.6z"/>
	</g>
</g>
</svg>
