<svg id="stupidlogo_Image" data-name="stupidlogo Image" xmlns="http://www.w3.org/2000/svg" viewBox="0 0 324.48 263.28"><defs><style>.cls-1{fill:#231f20;}</style></defs><path class="cls-1" d="M315.85,259a6.31,6.31,0,0,0,5.92-6.55v-3l-22-6.76h-6.55l-2.33-4-8.66-12.89,1.06-6.55,1.26-3-.42-22.4-1.9-2.54,1.06-11.62,2.32-7.82a39.54,39.54,0,0,0-1.27-12.05l-2.11-13.52,1.69-3.59s0-23.25.42-26.84L285.63,76l-.21-18.17-3.17-6.34s-.21-15.85,1.48-20.29,3-8.88,13.31-10.57,13.53,1.48,13.53,1.48l4.65-.21s9.3-4.65,9.3-8.66S319,1.74,312.26.79s-22.4-.95-22.4-.95S274,1.42,268.09,5l-17.75-.43s-8.45,2.12-11.2,7-5.92,9.3-5.92,9.3l1.27,4L223.08,51.93l-1.27,8.66s-1.9,7.4-8.87,19.87a84.63,84.63,0,0,0-7.61,15.64l-1.48,9.08-6.34,7.4s-3,7-3.59,9.09-5.5,9.81-5.5,9.81-6.76,9.2-6.76,13a23.11,23.11,0,0,1-2.11,8.24,33.64,33.64,0,0,1-8.88,9.72L168.35,165s-.85,5.28-3.17,5.91-5.5-.42-10.15-9.72c0,0-2.74-6.76-2.53-9.72l1.48-2.75v-7.39a31.75,31.75,0,0,0-9.3-5.92s-2.11-3.48-2.32-6-1.27-10.72-1.27-10.72L130.31,97.36,128.83,87l-5.49-5.5s-.64-5.49-2.54-9.08-3.8-8-3.8-8l-1.48-16.27L110,39.88s-3.17-5.7-3.59-10.14l-14-16.69L85.3,9.45,55.93,9.24l-5.5-1.69L27.4,8l-8.67,2.11-6.13.42-2.32,2.33s2.32,7.81,5.28,8.66a86.93,86.93,0,0,1,8.24,3.17s12.05,1.27,13.11,3.38l12.46,1.69S54,30.8,54,34.81a75,75,0,0,0,.64,8.67s.42,9.08-3,14.37l3,5.28-1.48,9.09-2.12,28.31s-3.8,7-3.8,13.11-2.32,39.09-2.32,39.09,2.11,4,2.11,6.55-6.55,34-6.55,34L40.71,206l-1.9,6.34-1.06,18L27.4,240.22,7.11,240s-8,3.81-7.07,8.67A26,26,0,0,0,4.36,258h37s5.29,3.17,7.4,2.74a30.07,30.07,0,0,0,4.65-1.47l23.24.42a76,76,0,0,0,17.76,1.09s7.39.18,8-5.95a6.59,6.59,0,0,0-4.86-7.4l-3-.84-4-3.39s-16.27-3.8-19-3.38c0,0-3.38-2.53-4.65-10.35a4.74,4.74,0,0,0-2.11-4l.63-28.1-1.69-3.81V187.6l3.17-7.19-.42-20.92s1.69-4,1.69-5.7S65,133.71,65,133.71l-.21-7,3-15s0-6.55-1.48-7.82l.21-4.86L68,95.88s-1.69-15.42,2.11-24.09c0,0,5.5-2.32,9.51,5.71s4.86,10.78,4.86,10.78l5.71,6.34L93.75,102l.85,9.72,1.69,2.33,2.11,6.76,3,4.23.84,1.9v4.53L107.49,146,118.9,170.9l4.86,16.49,4,7.81,5.29,9.3,3,5.92,2.53,9.51,1.69,8.66,2.12,7.19,3.38,6.55s5.28,7.61,8,8a12.1,12.1,0,0,0,5.7-.85l2.81-2.11,2.26-1.27,7.4-15.42,1.69-6.55s.85-6.77.85-7.4,12-26.63,12-26.63l4.86-19.44,2.75-3.8,2.53-10.57,9.3-9.08,1.9-8.67,3-3.38,5.71-23L227.09,94l.85-3.38,8.66-8.45s1.06-5.92,5.08-5.07,4.86,13.52,4.86,13.52l.42,16.7.63,18.8v45.65l-.21,13.31-3.17,32.76-1.48,10.35-.84,5.07.21,5.07-1.27,6.56s-2.32,5.28-7.18,5.91l-5.92.85-11.41,2.53s-1.9,9,11.2,9c0,0,6.34,1.61,15-2.41a28.1,28.1,0,0,0,5.71-.63c2.53-.63,5.49-1.06,5.49-1.06Z"/><path class="cls-1" d="M197.49,25.16V14.37s.37-1.46-2.19-1.1l-4.76,2.38-9.88-4H162.55l-9.14,2.56-10.61,8.6-8.23,12.43-2.38,13.72.91,9,1.28,2.38.55,6.22.55,3.11,2.2,5.67,2,2.19.73,2,3.11,2.75.55,1.83,6.4,3.84,1.65,2.38,6.22,2.19,6.5,1.1h7.58l6.22-2.2,4.94-1.09L188,87.54l1.47-1.83,8.06-1.64,2.54-5.86-1.46-1.83.37-9,1.09-1.65s-.73-5.85-4.2-5.85a5.2,5.2,0,0,0-5.12,4.21,27.75,27.75,0,0,1-3.48,10.06L184.87,78l-2.74,4-3.29-.18-2.2,2.56-4.21,2a6.14,6.14,0,0,1-3.66-.18h-4.2l-2.2-2.74L158,82.79l-5.3-4.58-4.39-9-.74-6-1.64-3.29-.55-2.38V47.85l1.46-1.65-.55-4.94,2.57-7.13,4.93-8.42,2.93-1.09,4.47-4.76,3.76-1.1.93.63,2.2-.54,3.5.16,2.16-1.91,1.7.54-.08,1.62,1,1.08,2.46.05.58.33,3.24.12,3.14,3,1.51,2,1,1.45.26,1.38L191,35.88l1.12.92,1,.13,1.32,1.18,2.7-1.38,1.84-2a25.78,25.78,0,0,0,0-6.08,5.85,5.85,0,0,0-.24-1c-.79-2.31.1.28.1.28Z"/></svg>